<?xml version="1.0" standalone="no"?>
<svg version="1.1" id="Layer_1" xmlns="http://www.w3.org/2000/svg" xmlns:xlink="http://www.w3.org/1999/xlink" x="0px" y="0px" viewBox="0 0 595.28 595.28" enable-background="new 0 0 595.28 595.28" xml:space="preserve">
<path id="color_x5F_6" fill="#2276BC" d="M358.377,363.043l-57.713-1.503l-52.639-19.021l-51.732,4.167l-8.504-4.507
	c-0.085,0.028-0.142,0.057-0.198,0.085c-4.479,2.098-8.929,3.854-13.55,2.522c-4.592-1.332-5.499-2.522-6.973-5.952
	c-1.417-3.261,0.113-6.123-1.049-8.164l-1.701-0.907c-2.041-0.17-5.584,0.652-8.759,1.332l-116.59,84.558l52.044,28.262
	l58.876-10.999l44.334,38.354l68.995-14.259l38.353,29.424l95.754-103.493L358.377,363.043z"></path>
<path id="color_x5F_5" fill="#FFD2BB" d="M396.021,229.588c1.276,2.579,1.134,5.442,0.935,7.001c-0.283,1.56-0.68,3.09-1.219,4.422
	c-1.928,4.904-9.496,6.832-9.496,6.832c-3.43,8.929-19.644,18.142-19.644,18.142l-1.332,12.926c0,0,4.025,0.766,4.762,7.002
	s-14.117,15.307-19.928,12.188s-5.357-13.38-1.191-16.214c4.167-2.807,2.523-11.141,2.523-11.141
	c-5.357,0.143-10.403-2.834-10.403-2.834c-9.128-4.791-12.387-16.583-13.436-26.59l1.616-11.962c0,0,4.025,2.239,11.707,4.252
	c7.71,2.013,14.825,1.22,20.523-1.786c5.698-3.004,6.576-3.685,8.929-2.125c2.324,1.559,3.005,4.025,2.324,9.723
	c-0.652,5.669,6.463,5.556,9.496,2.891c3.005-2.692,3.061-8.815,4.309-12.16c0.51-0.652,1.162-1.417,1.928-2.126
	C390.834,226.611,394.604,226.81,396.021,229.588L396.021,229.588z M196.944,317.348L196.944,317.348c0,0-11.906-4.818-15.761-5.867
	c-3.855-1.021-6.69,4.309-7.143,7.143c-0.425,2.835-26.447,5.642-28.545,8.618c-2.069,2.976,1.049,4.479,4.762,4.62
	s14.117-3.571,15.619-1.502c1.474,2.098-0.312,5.074,1.191,8.476c1.474,3.43,2.381,4.62,6.973,5.952
	c4.62,1.332,9.071-0.425,13.55-2.522c4.45-2.069,6.52-2.665,7.88-3.43c1.332-0.737,2.665-5.783,2.665-5.783l88.923-8.021
	l-10.743-30.643L196.944,317.348z M423.291,340.507L423.291,340.507l-22.252,7.853l3.77,31.011h25.88L423.291,340.507z"></path>
<path id="color_x5F_4" fill="#368bc4" d="M312.23,324.946v36.895l-11.566-0.301l-52.639-19.021l-41.014,3.304
	c-0.001-0.005-0.003-0.016-0.003-0.016l-10.715,0.879l-8.504-4.507c-0.059,0.019-0.096,0.039-0.137,0.059
	c4.405-2.044,6.465-2.641,7.818-3.402c1.332-0.737,2.665-5.783,2.665-5.783l88.923-8.021l-0.05-0.143
	c1.458,3.632,2.696,6.274,3.395,6.973C293.295,334.754,312.23,324.946,312.23,324.946z M349.959,280.902
	c-0.127,0.156-0.257,0.31-0.401,0.451C349.704,281.213,349.831,281.057,349.959,280.902z M370.027,285.913
	c-0.737-6.236-4.762-7.002-4.762-7.002l1.332-12.926c0,0,16.214-9.213,19.644-18.142c0,0,7.568-1.928,9.496-6.832
	c0.527-1.302,0.916-2.794,1.198-4.318c-0.097,0.675-0.205,1.087-0.205,1.087s6.179-6.831,6.633-14.769
	c0.454-7.908-5.131-14.258-10.147-15.166c0,0-0.454-11.027-9.468-16.271c-9.043-5.243-25.427-2.238-39.6-2.919
	c-14.145-0.653-23.981-10.687-23.981-10.687s-3.685,4.563-4.45,13.039c-0.794,8.476,4.932,14.769,4.932,14.769
	s-5.046,12.926-1.786,24.661c3.288,11.764,8.305,14.146,8.305,14.146l0.43-3.208c1.055,9.996,4.318,21.755,13.43,26.537
	c0,0,5.046,2.977,10.403,2.834c0,0,0.987,5.056-0.546,8.618l-2.711,0.086c0,0-27.213-1.56-29.679-1.56
	c-2.438,0-21.175,11.367-30.983,12.048c-9.837,0.651-10.262-3.119-11.169,0c-0.34,1.206,1.257,7.323,3.507,14.533l-3.535-10.082
	l-79.371,22.959c0,0-11.906-4.818-15.761-5.867c-3.855-1.021-6.69,4.309-7.143,7.143c-0.425,2.835-26.447,5.642-28.545,8.618
	c-2.069,2.976,1.049,4.479,4.762,4.62c1.665,0.063,4.675-0.647,7.625-1.265c-0.778,0.164-1.561,0.335-2.323,0.498l-36.668,26.594
	c8.206-16.545,15.75-36.444,11.524-48.902c-6.548-19.332-43.115-24.094-51.165,0c-0.405,1.215-0.694,2.491-0.888,3.814
	c-17.286-24.208-28.877-65.328,12.538-80.746c51.137-19.021,72.539,13.095,123.704-4.763c51.136-17.83,49.946-42.803,124.894-80.872
	c74.948-38.069,215.32-29.735,223.654,61.852c5.075,55.967-18.714,72.335-39.611,85.987c0.99-2.595,1.287-4.151,1.287-4.151
	c-22.989,10.46-33.251,38.637-33.25,38.637c1.323-0.778,2.577-1.566,3.799-2.359c-0.009,0.05-0.021,0.098-0.03,0.148
	c-0.317,1.825-0.553,3.59-0.722,5.302l-36.752-0.001l6.831,47.509l39.033,0.227l1.741-10.736
	c7.053,7.844,14.842,10.735,14.842,10.735h53.348v6.746h-179.28l2.937-3.174l-6.991-3.572h10.705v-31.01l3.77,31.011h25.88
	l-7.398-38.864l-22.252,7.853v-0.001l29.65-10.488c0,0-11.821-15.393-14.712-23.641c-2.92-8.249-7.228-24.066-18.876-30.557
	c-11.679-6.463-31.833-4.762-31.833-4.762s4.025,0.766,4.762,7.002 M488.544,329.735c24.378-35.688,17.83-85.351,17.83-85.351
	s-7.71,2.098-16.639,25.965C480.805,294.246,488.544,329.735,488.544,329.735z M446.761,251.897c0,0,2.693,41.131,38.665,74.381
	c0,0-3.571-39.005-15.165-53.887C458.667,257.537,446.761,251.897,446.761,251.897z M481.316,327.128
	c0,0-13.153-19.928-36.794-23.302C444.522,303.826,455.464,321.686,481.316,327.128z M397.084,234.401
	c0.003,0.267,0,0.525-0.01,0.77C397.084,234.926,397.087,234.668,397.084,234.401z M350.826,279.501
	c-0.087,0.187-0.178,0.372-0.278,0.549C350.648,279.871,350.74,279.689,350.826,279.501z M208.51,215.216
	c18.283,3.997,35.235-15.619,39.685-28.545c4.478-12.954-22.281-20.977-50.854-15.165c0,0-26.306,1.332-30.756,12.926
	C162.106,196.025,190.226,211.19,208.51,215.216z M350.466,280.184c-0.116,0.193-0.238,0.381-0.372,0.559
	C350.229,280.565,350.35,280.377,350.466,280.184z M100.376,371.117c-2.028-3.097-4.375-6.836-6.772-10.981L64.878,379.37H22.755
	v6.746h56.94L100.376,371.117z M397.035,235.795c0.012-0.149,0.022-0.305,0.03-0.465
	C397.057,235.491,397.047,235.645,397.035,235.795z M397.081,234.294c-0.005-0.229-0.016-0.464-0.033-0.705
	C397.064,233.829,397.076,234.065,397.081,234.294z M396.494,230.758c0.069,0.204,0.13,0.408,0.185,0.612
	C396.624,231.166,396.562,230.962,396.494,230.758z M397.031,233.379c-0.022-0.245-0.05-0.494-0.088-0.748
	C396.98,232.884,397.009,233.134,397.031,233.379z M396.925,232.502c-0.045-0.28-0.103-0.564-0.171-0.849
	C396.822,231.938,396.881,232.222,396.925,232.502z M160.233,330.135c-0.206,0.037-0.417,0.077-0.628,0.117
	C159.816,330.212,160.026,330.172,160.233,330.135z M159.012,330.366c-0.241,0.048-0.483,0.098-0.726,0.148
	C158.528,330.464,158.771,330.414,159.012,330.366z M162.525,329.805c-0.28,0.027-0.577,0.065-0.878,0.106
	C161.949,329.869,162.244,329.833,162.525,329.805z M161.421,329.941c-0.244,0.035-0.498,0.078-0.751,0.12
	C160.924,330.018,161.176,329.977,161.421,329.941z M396.033,229.616c0.135,0.277,0.251,0.557,0.355,0.838
	C396.283,230.172,396.168,229.892,396.033,229.616z M393.94,227.634c-0.024-0.011-0.048-0.021-0.073-0.031
	C393.891,227.613,393.915,227.623,393.94,227.634z M395.062,228.351c0.05,0.045,0.097,0.094,0.145,0.141
	C395.159,228.445,395.113,228.396,395.062,228.351z M395.662,229.013c-0.046-0.063-0.094-0.121-0.143-0.18
	C395.568,228.892,395.616,228.95,395.662,229.013z"></path>
<path id="color_x5F_3" fill="#417505" d="M166.557,390.992c-8.334-2.381-13.096,0.879-16.951,6.236
	c-3.855,5.357-9.524,6.548-17.263,2.211c-7.71-4.337-8.305,4.932-13.663,5.159c-5.357,0.227-8.334-7.37-13.691-4.706
	c-5.357,2.693-23.187,8.051-23.187,1.786c0-6.236-3.572-9.808-7.739-5.584s-8.107,0-8.107,0l89.603-64.999
	c3.175-0.68,6.718-1.502,8.759-1.332l1.701,0.907c1.162,2.041-0.368,4.903,1.049,8.164c1.474,3.43,2.381,4.62,6.973,5.952
	c4.62,1.332,9.071-0.425,13.55-2.522c0.057-0.028,0.113-0.057,0.198-0.085l8.504,4.507l10.715-0.879c0,0,2.069,10.971,0,12.756
	c-2.098,1.786-3.883,6.265-4.479,11.424c-0.595,5.188-7.115,2.863-14.854,0.481c-7.739-2.381-9.213,4.763-9.524,10.999
	C177.867,387.704,174.891,393.373,166.557,390.992L166.557,390.992z M358.377,363.043L358.377,363.043l-38.353-0.992
	c-2.891,1.898-4.876,3.996-5.386,6.32c-2.665,12.502-13.068,8.051-12.189,16.668c0.907,8.617,16.072,14.797,7.143,18.397
	s-22.309-6.491-26.476-2.041c-4.139,4.45-3.543,12.501,2.976,19.927c6.548,7.428,14.57,10.063,18.454,20.807
	c3.855,10.715,17.688,15.534,12.472,24.378c-0.822,1.417-1.049,2.807-0.879,4.195l81.184-87.761L358.377,363.043z M253.977,404.599
	L253.977,404.599c-5.046-2.438-7.71,1.843-19.332,9.581c-11.594,7.738-10.687-0.596-11.282-7.144s-5.357-2.665-18.737,0
	c-13.38,2.693-6.548,10.999-10.715,15.478c-4.167,4.45-8.022,2.381-10.998,8.929c-2.976,6.52-7.739,6.831-15.477,5.642
	c-2.976-0.454-5.017,2.125-6.406,5.471l33.194,28.715l62.305-12.898c1.361-6.944-3.43-5.527-7.597-10.289s5.357-7.144,2.665-10.998
	c-2.665-3.884-4.167-7.144,4.762-19.645C265.287,404.967,259.051,407.036,253.977,404.599L253.977,404.599z M104.846,336.283
	L104.846,336.283c9.354,0,16.951-7.568,16.951-16.951c0-9.354-7.597-16.951-16.951-16.951s-16.951,7.598-16.951,16.951
	C87.895,328.715,95.492,336.283,104.846,336.283L104.846,336.283z"></path>
<path id="color_x5F_2" fill="#f5f5f5" d="M79.25,308.787c-8.022,24.066,27.354,71.349,27.354,71.349
	c8.646-14.854,30.359-52.044,23.811-71.349C123.867,289.455,87.3,284.693,79.25,308.787L79.25,308.787z M415.977,314.23
	c2.891,8.248,14.712,23.641,14.712,23.641l-29.65,10.488v31.011h-10.743l-31.918-16.327l-46.148-1.191v-36.906
	c0,0-18.935,9.808-21.827,6.916s-14.939-38.807-14.06-41.924c0.907-3.119,1.332,0.651,11.169,0
	c9.808-0.681,28.545-12.048,30.983-12.048c2.466,0,29.679,1.56,29.679,1.56l2.721-0.086c-0.454,1.021-1.077,1.899-1.984,2.523
	c-4.167,2.834-4.62,13.096,1.191,16.214s20.665-5.952,19.928-12.188s-4.762-7.002-4.762-7.002s20.154-1.701,31.833,4.762
	C408.749,290.164,413.057,305.981,415.977,314.23L415.977,314.23z M524.828,289.908L524.828,289.908c0,0-4.025,21.459-33.25,38.637
	C491.577,328.545,501.839,300.368,524.828,289.908L524.828,289.908z M488.544,329.735L488.544,329.735
	c0,0-7.739-35.489,1.191-59.386c8.929-23.867,16.639-25.965,16.639-25.965S512.922,294.047,488.544,329.735L488.544,329.735z
	 M481.316,327.128L481.316,327.128c-25.852-5.442-36.794-23.302-36.794-23.302C468.163,307.2,481.316,327.128,481.316,327.128
	L481.316,327.128z M470.261,272.391L470.261,272.391c11.594,14.882,15.165,53.887,15.165,53.887
	c-35.972-33.25-38.665-74.381-38.665-74.381S458.667,257.537,470.261,272.391L470.261,272.391z M104.846,336.283L104.846,336.283
	c-9.354,0-16.951-7.568-16.951-16.951c0-9.354,7.597-16.951,16.951-16.951s16.951,7.598,16.951,16.951
	C121.798,328.715,114.201,336.283,104.846,336.283L104.846,336.283z"></path>
<path id="color_x5F_1" fill="#cb8d64" d="M457.873,331.635L457.873,331.635l6.831,47.509l39.033,0.227l7.739-47.735L457.873,331.635
	L457.873,331.635z M403.363,223.011L403.363,223.011c-0.454,7.938-6.633,14.769-6.633,14.769s1.162-4.394-0.709-8.191
	c-1.899-3.771-8.277-2.778-9.524,0.566s-1.304,9.468-4.309,12.16c-3.033,2.665-10.148,2.778-9.496-2.891
	c0.68-5.697,0-8.164-2.324-9.723c-2.353-1.56-3.232-0.879-8.929,2.125c-5.698,3.006-12.813,3.799-20.523,1.786
	c-7.682-2.013-11.707-4.252-11.707-4.252l-2.041,15.223c0,0-5.017-2.382-8.305-14.146c-3.26-11.735,1.786-24.661,1.786-24.661
	s-5.726-6.293-4.932-14.769c0.765-8.476,4.45-13.039,4.45-13.039s9.836,10.034,23.981,10.687c14.173,0.681,30.557-2.324,39.6,2.919
	c9.014,5.244,9.468,16.271,9.468,16.271C398.232,208.753,403.817,215.103,403.363,223.011L403.363,223.011z"></path>
</svg>